<svg xmlns="http://www.w3.org/2000/svg" xmlns:xlink="http://www.w3.org/1999/xlink" width="1810" height="711.3"><rect width="1810" height="711.3" rx="5" ry="5" class="a"/><svg y="0%" x="0%"><circle cx="20" cy="20" r="6" fill="#ff5f58"/><circle cx="40" cy="20" r="6" fill="#ffbd2e"/><circle cx="60" cy="20" r="6" fill="#18c132"/></svg><svg height="651.3" viewBox="0 0 177 65.13" width="1770" x="15" xmlns="http://www.w3.org/2000/svg" xmlns:xlink="http://www.w3.org/1999/xlink" y="50"><style>@keyframes r{0%{transform:translateX(0)}8.5%{transform:translateX(-177px)}10.2%{transform:translateX(-354px)}10.3%{transform:translateX(-1239px)}10.7%{transform:translateX(-1593px)}11.2%{transform:translateX(-1770px)}11.3%{transform:translateX(-1947px)}12%{transform:translateX(-2301px)}22.4%{transform:translateX(-2478px)}22.5%{transform:translateX(-3009px)}23%{transform:translateX(-3363px)}23.6%{transform:translateX(-3717px)}24.2%{transform:translateX(-4071px)}24.8%{transform:translateX(-4425px)}25.4%{transform:translateX(-4602px)}26%{transform:translateX(-4956px)}26.5%{transform:translateX(-5310px)}27.1%{transform:translateX(-5487px)}27.7%{transform:translateX(-5841px)}28.1%{transform:translateX(-6372px)}41.7%{transform:translateX(-7080px)}42.3%{transform:translateX(-7434px)}42.9%{transform:translateX(-7788px)}43.5%{transform:translateX(-8142px)}44.1%{transform:translateX(-8496px)}44.6%{transform:translateX(-8850px)}45.2%{transform:translateX(-9204px)}45.8%{transform:translateX(-9558px)}46.4%{transform:translateX(-10089px)}67.9%{transform:translateX(-10620px)}99.9%{transform:translateX(-10797px)}to{transform:translateX(-10974px)}}.a{fill:#282d35}.f{fill:#b9c0cb}.g{fill:gray}.h{fill:#a8cc8c}.i{fill:#d290e4;text-decoration:underline}.i,.j,.k{font-weight:700}.j{text-decoration:underline;fill:#dbab79}.k{fill:#a8cc8c}.l,.m{fill:#71bef2}.m{text-decoration:underline}.n{fill:#dbab79}.o{fill:#71bef2;font-weight:700}</style><g font-size="1.67" font-family="Monaco,Consolas,Menlo,'Bitstream Vera Sans Mono','Powerline Symbols',monospace"><defs><symbol id="1"><text y="1.67" class="f">⠋</text><text x="2.004" y="1.67" class="f">Loading</text></symbol><symbol id="2"><text y="1.67" class="g">0.</text><path class="h" d="M3.006 0h15v2.171h-15z"/><text x="3.006" y="1.67" class="f">rest-client-sdk</text><text x="19.038" y="1.67" class="f">|</text><text x="21.042" y="1.67" class="g">1.</text><text x="24.048" y="1.67" class="f">webpack-dev-server</text><text x="43.086" y="1.67" class="f">|</text><text x="45.09" y="1.67" class="g">2.</text><text x="48.096" y="1.67" class="f">prettier-eslint</text></symbol><symbol id="3"><text y="1.67" class="f">⠙</text><text x="2.004" y="1.67" class="f">Loading</text></symbol><symbol id="4"><text y="1.67" class="f">⠹</text><text x="2.004" y="1.67" class="f">Loading</text></symbol><symbol id="5"><text y="1.67" class="i">#</text><text x="2.004" y="1.67" class="i">CHANGELOG</text><text x="12.024" y="1.67" class="i">for</text><text x="16.032" y="1.67" class="i">&quot;mapado/rest-client-js-sdk&quot;</text><text x="44.088" y="1.67" class="i">(current</text><text x="53.106" y="1.67" class="i">version:</text><text x="62.124" y="1.67" class="j">2.0.0</text><text x="67.134" y="1.67" class="i">)</text></symbol><symbol id="6"><text y="1.67" class="k">##</text><text x="3.006" y="1.67" class="k">2.0.1</text></symbol><symbol id="7"><text y="1.67" class="k">###</text><text x="4.008" y="1.67" class="k">Changed</text></symbol><symbol id="8"><text x="5.01" y="1.67" class="f">*</text><text x="7.014" y="1.67" class="f">Better</text><text x="14.028" y="1.67" class="f">packaging</text><text x="24.048" y="1.67" class="f">system</text><text x="31.062" y="1.67" class="l">#48</text><text x="35.07" y="1.67" class="l">(</text><text x="36.072" y="1.67" class="m">https://github.com/mapado/rest-client-js-sdk/pull/48</text><text x="88.176" y="1.67" class="l">)</text></symbol><symbol id="9"><text y="1.67" class="g">0.</text><text x="3.006" y="1.67" class="f">rest-client-sdk</text><text x="19.038" y="1.67" class="f">|</text><text x="21.042" y="1.67" class="g">1.</text><path class="h" d="M24.048 0h18v2.171h-18z"/><text x="24.048" y="1.67" class="f">webpack-dev-server</text><text x="43.086" y="1.67" class="f">|</text><text x="45.09" y="1.67" class="g">2.</text><text x="48.096" y="1.67" class="f">prettier-eslint</text></symbol><symbol id="10"><text y="1.67" class="f">⠸</text><text x="2.004" y="1.67" class="f">Loading</text></symbol><symbol id="11"><text y="1.67" class="f">⠼</text><text x="2.004" y="1.67" class="f">Loading</text></symbol><symbol id="12"><text y="1.67" class="f">⠴</text><text x="2.004" y="1.67" class="f">Loading</text></symbol><symbol id="13"><text y="1.67" class="f">⠦</text><text x="2.004" y="1.67" class="f">Loading</text></symbol><symbol id="14"><text y="1.67" class="f">⠧</text><text x="2.004" y="1.67" class="f">Loading</text></symbol><symbol id="15"><text y="1.67" class="f">⠇</text><text x="2.004" y="1.67" class="f">Loading</text></symbol><symbol id="16"><text y="1.67" class="f">⠏</text><text x="2.004" y="1.67" class="f">Loading</text></symbol><symbol id="17"><text y="1.67" class="i">#</text><text x="2.004" y="1.67" class="i">CHANGELOG</text><text x="12.024" y="1.67" class="i">for</text><text x="16.032" y="1.67" class="i">&quot;webpack/webpack-dev-server&quot;</text><text x="45.09" y="1.67" class="i">(current</text><text x="54.108" y="1.67" class="i">version:</text><text x="63.126" y="1.67" class="j">3.0.0</text><text x="68.136" y="1.67" class="i">)</text></symbol><symbol id="18"><text y="1.67" class="i">#</text><text x="2.004" y="1.67" class="i">3.1.1</text></symbol><symbol id="19"><text x="5.01" y="1.67" class="f">*</text><text x="7.014" y="1.67" class="f">Update</text><text x="14.028" y="1.67" class="f">to</text><text x="17.034" y="1.67" class="l">webpack-dev-middleware</text><text x="40.08" y="1.67" class="l">v3</text><text x="43.086" y="1.67" class="l">(</text><text x="44.088" y="1.67" class="m">https://github.com/webpack/webpack-dev-middleware/releases/tag/v3.0.0</text><text x="113.226" y="1.67" class="l">)</text><text x="114.228" y="1.67" class="f">,</text><text x="116.232" y="1.67" class="f">which</text><text x="122.244" y="1.67" class="f">removes</text><text x="130.26" y="1.67" class="f">the</text><text x="134.268" y="1.67" class="f">deprecation</text><text x="146.292" y="1.67" class="f">warnings</text><text x="155.31" y="1.67" class="f">from</text><text x="160.32" y="1.67" class="f">webpack.</text></symbol><symbol id="20"><text y="1.67" class="i">#</text><text x="2.004" y="1.67" class="i">3.1.0</text></symbol><symbol id="21"><text y="1.67" class="k">##</text><text x="3.006" y="1.67" class="k">Updates</text></symbol><symbol id="22"><text x="5.01" y="1.67" class="f">*</text><text x="7.014" y="1.67" class="f">Fancy</text><text x="13.026" y="1.67" class="f">logging;</text><text x="22.044" y="1.67" class="n">webpack-log</text><text x="34.068" y="1.67" class="f">is</text><text x="37.074" y="1.67" class="f">now</text><text x="41.082" y="1.67" class="f">used</text><text x="46.092" y="1.67" class="f">for</text><text x="50.1" y="1.67" class="f">logging</text><text x="58.116" y="1.67" class="f">to</text><text x="61.122" y="1.67" class="f">the</text><text x="65.13" y="1.67" class="f">terminal</text><text x="74.148" y="1.67" class="f">(webpack-dev-middleware</text><text x="98.196" y="1.67" class="f">was</text><text x="102.204" y="1.67" class="f">already</text><text x="110.22" y="1.67" class="f">using</text><text x="116.232" y="1.67" class="f">this).</text></symbol><symbol id="23"><text x="5.01" y="1.67" class="f">*</text><text x="7.014" y="1.67" class="f">The</text><text x="11.022" y="1.67" class="n">logLevel</text><text x="20.04" y="1.67" class="f">option</text><text x="27.054" y="1.67" class="f">is</text><text x="30.06" y="1.67" class="f">added</text><text x="36.072" y="1.67" class="f">for</text><text x="40.08" y="1.67" class="f">more</text><text x="45.09" y="1.67" class="f">fine-grained</text><text x="58.116" y="1.67" class="f">control</text><text x="66.132" y="1.67" class="f">over</text><text x="71.142" y="1.67" class="f">the</text><text x="75.15" y="1.67" class="f">logging.</text></symbol><symbol id="24"><text y="1.67" class="k">##</text><text x="3.006" y="1.67" class="k">Bugfixes</text></symbol><symbol id="25"><text x="5.01" y="1.67" class="f">*</text><text x="7.014" y="1.67" class="f">MultiCompiler</text><text x="21.042" y="1.67" class="f">was</text><text x="25.05" y="1.67" class="f">broken</text><text x="32.064" y="1.67" class="f">with</text><text x="37.074" y="1.67" class="f">webpack</text><text x="45.09" y="1.67" class="f">4.</text></symbol><symbol id="26"><text x="5.01" y="1.67" class="f">*</text><text x="7.014" y="1.67" class="f">Fix</text><text x="11.022" y="1.67" class="f">deprecation</text><text x="23.046" y="1.67" class="f">warnings</text><text x="32.064" y="1.67" class="f">caused</text><text x="39.078" y="1.67" class="f">by</text><text x="42.084" y="1.67" class="f">webpack</text><text x="50.1" y="1.67" class="f">4.</text><text x="53.106" y="1.67" class="f">Note</text><text x="58.116" y="1.67" class="f">that</text><text x="63.126" y="1.67" class="f">you</text><text x="67.134" y="1.67" class="f">will</text><text x="72.144" y="1.67" class="f">still</text><text x="78.156" y="1.67" class="f">see</text><text x="82.164" y="1.67" class="f">some</text><text x="87.174" y="1.67" class="f">deprecation</text><text x="99.198" y="1.67" class="f">warnings</text><text x="108.216" y="1.67" class="f">because</text><text x="116.232" y="1.67" class="f">webpack-dev-middleware</text><text x="139.278" y="1.67" class="f">has</text><text x="143.286" y="1.67" class="f">not</text><text x="147.294" y="1.67" class="f">been</text><text x="152.304" y="1.67" class="f">updated</text><text x="160.32" y="1.67" class="f">yet.</text></symbol><symbol id="27"><text y="1.67" class="g">0.</text><text x="3.006" y="1.67" class="f">rest-client-sdk</text><text x="19.038" y="1.67" class="f">|</text><text x="21.042" y="1.67" class="g">1.</text><text x="24.048" y="1.67" class="f">webpack-dev-server</text><text x="43.086" y="1.67" class="f">|</text><text x="45.09" y="1.67" class="g">2.</text><path class="h" d="M48.096 0h15v2.171h-15z"/><text x="48.096" y="1.67" class="f">prettier-eslint</text></symbol><symbol id="28"><text y="1.67" class="i">#</text><text x="2.004" y="1.67" class="i">CHANGELOG</text><text x="12.024" y="1.67" class="i">for</text><text x="16.032" y="1.67" class="i">&quot;prettier/prettier-eslint&quot;</text><text x="43.086" y="1.67" class="i">(current</text><text x="52.104" y="1.67" class="i">version:</text><text x="61.122" y="1.67" class="j">8.8.0</text><text x="66.132" y="1.67" class="i">)</text></symbol><symbol id="29"><text y="1.67" class="i">#</text><text x="2.004" y="1.67" class="i">8.8.1</text></symbol><symbol id="30"><text y="1.67" class="f">&lt;a</text><text x="3.006" y="1.67" class="f">name=&quot;8.8.1&quot;&gt;&lt;/a&gt;</text></symbol><symbol id="31"><text y="1.67" class="k">##</text><text x="3.006" y="1.67" class="o">8.8.1</text><text x="9.018" y="1.67" class="o">(</text><text x="10.02" y="1.67" fill="#71bef2" font-weight="700" text-decoration="underline">https://github.com/prettier/prettier-eslint/compare/v8.8.0...v8.8.1</text><text x="77.154" y="1.67" class="o">)</text><text x="79.158" y="1.67" class="k">(2018-01-21)</text></symbol><symbol id="32"><text y="1.67" class="k">###</text><text x="4.008" y="1.67" class="k">Bug</text><text x="8.016" y="1.67" class="k">Fixes</text></symbol><symbol id="33"><text x="5.01" y="1.67" class="f">*</text><text x="7.014" y="1.67" class="f">Don&apos;t</text><text x="13.026" y="1.67" class="f">turn</text><text x="18.036" y="1.67" class="f">off</text><text x="22.044" y="1.67" class="f">valid-jsdoc</text><text x="34.068" y="1.67" class="f">as</text><text x="37.074" y="1.67" class="f">that</text><text x="42.084" y="1.67" class="f">rule</text><text x="47.094" y="1.67" class="f">is</text><text x="50.1" y="1.67" class="f">actually</text><text x="59.118" y="1.67" class="f">fixable</text><text x="67.134" y="1.67" class="f">(</text><text x="68.136" y="1.67" class="l">d359fad</text><text x="76.152" y="1.67" class="l">(</text><text x="77.154" y="1.67" class="m">https://github.com/prettier/prettier-eslint/commit/d359fad</text><text x="135.27" y="1.67" class="l">)</text><text x="136.272" y="1.67" class="f">)</text></symbol><symbol id="34"><text x="5.01" y="1.67" class="f">*</text><text x="7.014" y="1.67" class="f">Revert</text><text x="14.028" y="1.67" class="f">commit</text><text x="21.042" y="1.67" class="f">17f30b4d2dcc0e95ed2101513563c81bd043f6ba</text><text x="62.124" y="1.67" class="f">(</text><text x="63.126" y="1.67" class="l">685f4be</text><text x="71.142" y="1.67" class="l">(</text><text x="72.144" y="1.67" class="m">https://github.com/prettier/prettier-eslint/commit/685f4be</text><text x="130.26" y="1.67" class="l">)</text><text x="131.262" y="1.67" class="f">)</text></symbol><symbol id="a"><path fill="transparent" d="M0 0h177v31H0z"/></symbol></defs><path class="a" d="M0 0h177v65.13H0z"/><g style="animation-duration:13.804307999999999s;animation-iteration-count:infinite;animation-name:r;animation-timing-function:steps(1,end)"><svg width="11151"><svg><use xlink:href="#a"/></svg><svg x="177"><use xlink:href="#a"/></svg><svg x="354"><use xlink:href="#a"/></svg><svg x="531"><use xlink:href="#a"/><use xlink:href="#1"/><use xlink:href="#2" y="2.171"/></svg><svg x="708"><use xlink:href="#a"/><use xlink:href="#1"/><use xlink:href="#2" y="2.171"/></svg><svg x="885"><use xlink:href="#a"/><use xlink:href="#1"/><use xlink:href="#2" y="2.171"/></svg><svg x="1062"><use xlink:href="#a"/><use xlink:href="#1"/><use xlink:href="#2" y="2.171"/></svg><svg x="1239"><use xlink:href="#a"/><use xlink:href="#1"/><use xlink:href="#2" y="2.171"/></svg><svg x="1416"><use xlink:href="#a"/><use xlink:href="#1"/><use xlink:href="#2" y="2.171"/></svg><svg x="1593"><use xlink:href="#a"/><use xlink:href="#3"/><use xlink:href="#2" y="2.171"/></svg><svg x="1770"><use xlink:href="#a"/><use xlink:href="#3"/><use xlink:href="#2" y="2.171"/></svg><svg x="1947"><use xlink:href="#a"/><use xlink:href="#4"/><use xlink:href="#2" y="2.171"/></svg><svg x="2124"><use xlink:href="#a"/><use xlink:href="#4"/><use xlink:href="#2" y="2.171"/></svg><svg x="2301"><use xlink:href="#a"/><use xlink:href="#5"/><use xlink:href="#6" y="4.342"/><use xlink:href="#7" y="8.684"/><use xlink:href="#8" y="13.026"/><use xlink:href="#2" y="19.539"/></svg><svg x="2478"><use xlink:href="#a"/><use xlink:href="#5"/><use xlink:href="#6" y="4.342"/><use xlink:href="#7" y="8.684"/><use xlink:href="#8" y="13.026"/><use xlink:href="#2" y="19.539"/></svg><svg x="2655"><use xlink:href="#a"/><use xlink:href="#1"/><use xlink:href="#9" y="2.171"/></svg><svg x="2832"><use xlink:href="#a"/><use xlink:href="#1"/><use xlink:href="#9" y="2.171"/></svg><svg x="3009"><use xlink:href="#a"/><use xlink:href="#1"/><use xlink:href="#9" y="2.171"/></svg><svg x="3186"><use xlink:href="#a"/><use xlink:href="#1"/><use xlink:href="#9" y="2.171"/></svg><svg x="3363"><use xlink:href="#a"/><use xlink:href="#3"/><use xlink:href="#9" y="2.171"/></svg><svg x="3540"><use xlink:href="#a"/><use xlink:href="#3"/><use xlink:href="#9" y="2.171"/></svg><svg x="3717"><use xlink:href="#a"/><use xlink:href="#4"/><use xlink:href="#9" y="2.171"/></svg><svg x="3894"><use xlink:href="#a"/><use xlink:href="#4"/><use xlink:href="#9" y="2.171"/></svg><svg x="4071"><use xlink:href="#a"/><use xlink:href="#10"/><use xlink:href="#9" y="2.171"/></svg><svg x="4248"><use xlink:href="#a"/><use xlink:href="#10"/><use xlink:href="#9" y="2.171"/></svg><svg x="4425"><use xlink:href="#a"/><use xlink:href="#11"/><use xlink:href="#9" y="2.171"/></svg><svg x="4602"><use xlink:href="#a"/><use xlink:href="#12"/><use xlink:href="#9" y="2.171"/></svg><svg x="4779"><use xlink:href="#a"/><use xlink:href="#12"/><use xlink:href="#9" y="2.171"/></svg><svg x="4956"><use xlink:href="#a"/><use xlink:href="#13"/><use xlink:href="#9" y="2.171"/></svg><svg x="5133"><use xlink:href="#a"/><use xlink:href="#13"/><use xlink:href="#9" y="2.171"/></svg><svg x="5310"><use xlink:href="#a"/><use xlink:href="#14"/><use xlink:href="#9" y="2.171"/></svg><svg x="5487"><use xlink:href="#a"/><use xlink:href="#15"/><use xlink:href="#9" y="2.171"/></svg><svg x="5664"><use xlink:href="#a"/><use xlink:href="#15"/><use xlink:href="#9" y="2.171"/></svg><svg x="5841"><use xlink:href="#a"/><use xlink:href="#16"/><use xlink:href="#9" y="2.171"/></svg><svg x="6018"><use xlink:href="#a"/><use xlink:href="#16"/><use xlink:href="#9" y="2.171"/></svg><svg x="6195"><use xlink:href="#a"/><use xlink:href="#17"/><use xlink:href="#18" y="4.342"/><use xlink:href="#19" y="8.684"/><use xlink:href="#20" y="13.026"/><use xlink:href="#21" y="17.368"/><use xlink:href="#22" y="21.71"/></svg><svg x="6372"><use xlink:href="#a"/><use xlink:href="#17"/><use xlink:href="#18" y="4.342"/><use xlink:href="#19" y="8.684"/><use xlink:href="#20" y="13.026"/><use xlink:href="#21" y="17.368"/><use xlink:href="#22" y="21.71"/><use xlink:href="#23" y="23.881"/><use xlink:href="#24" y="28.223"/><use xlink:href="#25" y="32.565"/><use xlink:href="#26" y="34.736"/><use xlink:href="#9" y="41.249"/></svg><svg x="6549"><use xlink:href="#a"/><use xlink:href="#17"/><use xlink:href="#18" y="4.342"/><use xlink:href="#19" y="8.684"/><use xlink:href="#20" y="13.026"/><use xlink:href="#21" y="17.368"/><use xlink:href="#22" y="21.71"/><use xlink:href="#23" y="23.881"/><use xlink:href="#24" y="28.223"/><use xlink:href="#25" y="32.565"/><use xlink:href="#26" y="34.736"/><use xlink:href="#9" y="41.249"/></svg><svg x="6726"><use xlink:href="#a"/><use xlink:href="#1"/><use xlink:href="#27" y="2.171"/></svg><svg x="6903"><use xlink:href="#a"/><use xlink:href="#1"/><use xlink:href="#27" y="2.171"/></svg><svg x="7080"><use xlink:href="#a"/><use xlink:href="#1"/><use xlink:href="#27" y="2.171"/></svg><svg x="7257"><use xlink:href="#a"/><use xlink:href="#1"/><use xlink:href="#27" y="2.171"/></svg><svg x="7434"><use xlink:href="#a"/><use xlink:href="#3"/><use xlink:href="#27" y="2.171"/></svg><svg x="7611"><use xlink:href="#a"/><use xlink:href="#3"/><use xlink:href="#27" y="2.171"/></svg><svg x="7788"><use xlink:href="#a"/><use xlink:href="#4"/><use xlink:href="#27" y="2.171"/></svg><svg x="7965"><use xlink:href="#a"/><use xlink:href="#4"/><use xlink:href="#27" y="2.171"/></svg><svg x="8142"><use xlink:href="#a"/><use xlink:href="#10"/><use xlink:href="#27" y="2.171"/></svg><svg x="8319"><use xlink:href="#a"/><use xlink:href="#10"/><use xlink:href="#27" y="2.171"/></svg><svg x="8496"><use xlink:href="#a"/><use xlink:href="#11"/><use xlink:href="#27" y="2.171"/></svg><svg x="8673"><use xlink:href="#a"/><use xlink:href="#11"/><use xlink:href="#27" y="2.171"/></svg><svg x="8850"><use xlink:href="#a"/><use xlink:href="#12"/><use xlink:href="#27" y="2.171"/></svg><svg x="9027"><use xlink:href="#a"/><use xlink:href="#12"/><use xlink:href="#27" y="2.171"/></svg><svg x="9204"><use xlink:href="#a"/><use xlink:href="#13"/><use xlink:href="#27" y="2.171"/></svg><svg x="9381"><use xlink:href="#a"/><use xlink:href="#13"/><use xlink:href="#27" y="2.171"/></svg><svg x="9558"><use xlink:href="#a"/><use xlink:href="#14"/><use xlink:href="#27" y="2.171"/></svg><svg x="9735"><use xlink:href="#a"/><use xlink:href="#14"/><use xlink:href="#27" y="2.171"/></svg><svg x="9912"><use xlink:href="#a"/><use xlink:href="#28"/><use xlink:href="#29" y="4.342"/><use xlink:href="#30" y="8.684"/><use xlink:href="#31" y="13.026"/><use xlink:href="#32" y="17.368"/><use xlink:href="#33" y="21.71"/><use xlink:href="#34" y="23.881"/></svg><svg x="10089"><use xlink:href="#a"/><use xlink:href="#28"/><use xlink:href="#29" y="4.342"/><use xlink:href="#30" y="8.684"/><use xlink:href="#31" y="13.026"/><use xlink:href="#32" y="17.368"/><use xlink:href="#33" y="21.71"/><use xlink:href="#34" y="23.881"/><use xlink:href="#27" y="30.394"/></svg><svg x="10266"><use xlink:href="#a"/><use xlink:href="#1"/><use xlink:href="#2" y="2.171"/></svg><svg x="10443"><use xlink:href="#a"/><use xlink:href="#1"/><use xlink:href="#2" y="2.171"/></svg><svg x="10620"><use xlink:href="#a"/><use xlink:href="#5"/><use xlink:href="#6" y="4.342"/><use xlink:href="#7" y="8.684"/><use xlink:href="#8" y="13.026"/><use xlink:href="#2" y="19.539"/></svg><svg x="10797"><use xlink:href="#a"/><use xlink:href="#5"/><use xlink:href="#6" y="4.342"/><use xlink:href="#7" y="8.684"/><use xlink:href="#8" y="13.026"/><use xlink:href="#2" y="19.539"/></svg><svg x="10974"><use xlink:href="#a"/><use xlink:href="#5"/><use xlink:href="#6" y="4.342"/><use xlink:href="#7" y="8.684"/><use xlink:href="#8" y="13.026"/><use xlink:href="#2" y="19.539"/></svg></svg></g></g></svg></svg>