<svg xmlns="http://www.w3.org/2000/svg" xmlns:xlink="http://www.w3.org/1999/xlink" width="1040" height="559.33"><rect width="1040" height="559.33" rx="5" ry="5" class="a"/><svg y="0%" x="0%"><circle cx="20" cy="20" r="6" fill="#ff5f58"/><circle cx="40" cy="20" r="6" fill="#ffbd2e"/><circle cx="60" cy="20" r="6" fill="#18c132"/></svg><svg height="499.33" viewBox="0 0 100 49.933" width="1000" x="15" xmlns="http://www.w3.org/2000/svg" xmlns:xlink="http://www.w3.org/1999/xlink" y="50"><style>@keyframes n{0%{transform:translateX(0)}2.9%{transform:translateX(-200px)}3.7%{transform:translateX(-400px)}3.9%{transform:translateX(-500px)}18.3%{transform:translateX(-600px)}18.4%{transform:translateX(-700px)}18.6%{transform:translateX(-800px)}19.8%{transform:translateX(-1000px)}21.2%{transform:translateX(-1200px)}22.6%{transform:translateX(-1400px)}24%{transform:translateX(-1500px)}24.1%{transform:translateX(-1600px)}25.5%{transform:translateX(-1800px)}26.9%{transform:translateX(-2000px)}28.4%{transform:translateX(-2200px)}29.2%{transform:translateX(-2300px)}29.3%{transform:translateX(-2500px)}38%{transform:translateX(-2600px)}38.1%{transform:translateX(-2900px)}38.2%{transform:translateX(-3000px)}39.6%{transform:translateX(-3400px)}54.4%{transform:translateX(-3800px)}54.6%{transform:translateX(-3900px)}54.7%{transform:translateX(-4200px)}62.2%{transform:translateX(-4600px)}62.4%{transform:translateX(-5000px)}65.2%{transform:translateX(-5400px)}65.4%{transform:translateX(-5500px)}65.5%{transform:translateX(-5800px)}99.8%{transform:translateX(-6000px)}99.9%{transform:translateX(-6100px)}to{transform:translateX(-6300px)}}.a{fill:#282d35}.f{font-weight:700}.f,.g{fill:#b9c0cb}.h{fill:#a8cc8c}.j{fill:gray}.k{fill:#a8cc8c;font-weight:700}.l{fill:#dbab79}</style><g font-size="1.67" font-family="Monaco,Consolas,Menlo,'Bitstream Vera Sans Mono','Powerline Symbols',monospace"><defs><symbol id="1"><text y="1.67" class="f">yarn</text><text x="5.01" y="1.67" class="f">run</text><text x="9.018" y="1.67" class="f">v1.13.0</text></symbol><symbol id="2"><text y="1.67" class="g">⠋</text><text x="2.004" y="1.67" class="g">Loading</text></symbol><symbol id="3"><text y="1.67" class="g">────────────────────────────────────────────────────────────────────────────────────────────</text></symbol><symbol id="4"><text y="1.67" class="g">1.</text><path class="h" d="M3.006 0h28v2.171h-28z"/><text x="3.006" y="1.67" class="i">sebastianbergmann/diff@3.0.0</text><text x="32.064" y="1.67" class="g">|</text><text x="34.068" y="1.67" class="j">2.</text><text x="37.074" y="1.67" class="g">jdeniau/ink-tab@1.0.0</text></symbol><symbol id="5"><text y="1.67" class="g">⠙</text><text x="2.004" y="1.67" class="g">Loading</text></symbol><symbol id="6"><text y="1.67" class="g">⠹</text><text x="2.004" y="1.67" class="g">Loading</text></symbol><symbol id="7"><text y="1.67" class="g">⠸</text><text x="2.004" y="1.67" class="g">Loading</text></symbol><symbol id="8"><text y="1.67" class="g">⠼</text><text x="2.004" y="1.67" class="g">Loading</text></symbol><symbol id="9"><text y="1.67" class="g">⠴</text><text x="2.004" y="1.67" class="g">Loading</text></symbol><symbol id="10"><text y="1.67" class="g">⠦</text><text x="2.004" y="1.67" class="g">Loading</text></symbol><symbol id="11"><text y="1.67" class="g">⠧</text><text x="2.004" y="1.67" class="g">Loading</text></symbol><symbol id="12"><text y="1.67" class="g">CHANGELOG</text><text x="10.02" y="1.67" class="g">for</text><text x="14.028" y="1.67" class="g">&quot;sebastianbergmann/diff&quot;</text><text x="39.078" y="1.67" class="g">(current</text><text x="48.096" y="1.67" class="g">version:</text><text x="57.114" y="1.67" class="g">`3.0.0`)</text></symbol><symbol id="13"><text y="1.67" class="g">1.</text><path class="h" d="M3.006 0h5v2.171h-5z"/><text x="3.006" y="1.67" class="i">3.0.2</text><text x="16.032" y="1.67" class="k">##</text><text x="19.038" y="1.67" class="k">[3.0.2]</text><text x="27.054" y="1.67" class="k">-</text><text x="29.058" y="1.67" class="k">2019-02-04</text></symbol><symbol id="14"><text y="1.67" class="g">─────────</text></symbol><symbol id="15"><text y="1.67" class="g">2.</text><text x="3.006" y="1.67" class="g">3.0.1</text><text x="16.032" y="1.67" class="k">###</text><text x="20.04" y="1.67" class="k">Changed</text></symbol><symbol id="16"><text x="20.04" y="1.67" class="g">*</text><text x="22.044" y="1.67" class="l">Chunk::setLines()</text><text x="40.08" y="1.67" class="g">now</text><text x="44.088" y="1.67" class="g">ensures</text><text x="52.104" y="1.67" class="g">that</text><text x="57.114" y="1.67" class="g">the</text><text x="61.122" y="1.67" class="l">$lines</text><text x="68.136" y="1.67" class="g">array</text><text x="74.148" y="1.67" class="g">only</text><text x="79.158" y="1.67" class="g">contains</text><text x="88.176" y="1.67" class="l">Line</text></symbol><symbol id="17"><text x="17.034" y="1.67" class="g">objects</text></symbol><symbol id="18"><text y="1.67" class="g">1.</text><text x="3.006" y="1.67" class="g">sebastianbergmann/diff@3.0.0</text><text x="32.064" y="1.67" class="g">|</text><text x="34.068" y="1.67" class="j">2.</text><path class="h" d="M37.074 0h21v2.171h-21z"/><text x="37.074" y="1.67" class="i">jdeniau/ink-tab@1.0.0</text></symbol><symbol id="19"><text y="1.67" class="g">CHANGELOG</text><text x="10.02" y="1.67" class="g">for</text><text x="14.028" y="1.67" class="g">&quot;jdeniau/ink-tab&quot;</text><text x="32.064" y="1.67" class="g">(current</text><text x="41.082" y="1.67" class="g">version:</text><text x="50.1" y="1.67" class="g">`1.0.0`)</text></symbol><symbol id="20"><text y="1.67" class="g">1.</text><path class="h" d="M3.006 0h5v2.171h-5z"/><text x="3.006" y="1.67" class="i">2.1.1</text><text x="17.034" y="1.67" class="k">##</text><text x="20.04" y="1.67" class="k">2.1.1</text></symbol><symbol id="21"><text y="1.67" class="g">2.</text><text x="3.006" y="1.67" class="g">2.1.0</text><text x="17.034" y="1.67" class="k">###</text><text x="21.042" y="1.67" class="k">Changed</text></symbol><symbol id="22"><text y="1.67" class="g">3.</text><text x="3.006" y="1.67" class="g">2.0.1</text><text x="21.042" y="1.67" class="g">*</text><text x="23.046" y="1.67" class="g">Fix</text><text x="27.054" y="1.67" class="g">small</text><text x="33.066" y="1.67" class="g">issue</text><text x="39.078" y="1.67" class="g">with</text><text x="44.088" y="1.67" class="g">proptypes</text><text x="54.108" y="1.67" class="g">and</text><text x="58.116" y="1.67" class="g">default</text><text x="66.132" y="1.67" class="g">width</text><text x="72.144" y="1.67" class="g">parameters</text></symbol><symbol id="23"><text y="1.67" class="g">4.</text><text x="3.006" y="1.67" class="g">2.0.0</text></symbol><symbol id="24"><text y="1.67" class="j">5.</text><text x="3.006" y="1.67" class="g">1.3.0</text></symbol><symbol id="25"><text y="1.67" class="j">6.</text><text x="3.006" y="1.67" class="g">1.2.1</text></symbol><symbol id="26"><text y="1.67" class="j">7.</text><text x="3.006" y="1.67" class="g">1.2.0</text></symbol><symbol id="27"><text y="1.67" class="j">8.</text><text x="3.006" y="1.67" class="g">1.1.0</text></symbol><symbol id="28"><text y="1.67" class="j">9.</text><text x="3.006" y="1.67" class="g">1.0.1</text></symbol><symbol id="29"><text y="1.67" class="g">1.</text><text x="3.006" y="1.67" class="g">2.1.1</text><text x="17.034" y="1.67" class="k">##</text><text x="20.04" y="1.67" class="k">2.1.1</text></symbol><symbol id="30"><text y="1.67" class="g">2.</text><path class="h" d="M3.006 0h5v2.171h-5z"/><text x="3.006" y="1.67" class="i">2.1.0</text><text x="17.034" y="1.67" class="k">###</text><text x="21.042" y="1.67" class="k">Changed</text></symbol><symbol id="31"><text y="1.67" class="g">1.</text><text x="3.006" y="1.67" class="g">2.1.1</text><text x="14.028" y="1.67" class="k">##</text><text x="17.034" y="1.67" class="k">2.1.0</text></symbol><symbol id="32"><text y="1.67" class="g">2.</text><path class="h" d="M3.006 0h5v2.171h-5z"/><text x="3.006" y="1.67" class="i">2.1.0</text><text x="14.028" y="1.67" class="k">###</text><text x="18.036" y="1.67" class="k">Changed</text></symbol><symbol id="33"><text y="1.67" class="g">3.</text><text x="3.006" y="1.67" class="g">2.0.1</text><text x="18.036" y="1.67" class="g">*</text><text x="20.04" y="1.67" class="g">[Minor</text><text x="27.054" y="1.67" class="g">BC</text><text x="30.06" y="1.67" class="g">Break]</text><text x="37.074" y="1.67" class="g">Need</text><text x="42.084" y="1.67" class="g">ink</text><text x="46.092" y="1.67" class="g">^2.1.0</text><text x="53.106" y="1.67" class="g">(use</text><text x="58.116" y="1.67" class="g">automatic</text><text x="68.136" y="1.67" class="g">keypress</text><text x="77.154" y="1.67" class="g">event,</text><text x="84.168" y="1.67" class="g">added</text><text x="90.18" y="1.67" class="g">in</text></symbol><symbol id="34"><text y="1.67" class="g">─────────</text><text x="15.03" y="1.67" class="g">2.0.4)</text></symbol><symbol id="35"><text y="1.67" class="g">4.</text><text x="3.006" y="1.67" class="g">2.0.0</text><text x="18.036" y="1.67" class="g">*</text><text x="20.04" y="1.67" class="g">Fix</text><text x="24.048" y="1.67" class="g">issue</text><text x="30.06" y="1.67" class="g">with</text><text x="35.07" y="1.67" class="g">CTRL-C</text><text x="42.084" y="1.67" class="g">and</text><text x="46.092" y="1.67" class="g">multiple</text><text x="55.11" y="1.67" class="g">instances</text></symbol><symbol id="36"><text y="1.67" class="g">─────────</text><text x="18.036" y="1.67" class="g">*</text><text x="20.04" y="1.67" class="g">Use</text><text x="24.048" y="1.67" class="g">the</text><text x="28.056" y="1.67" class="l">width</text><text x="34.068" y="1.67" class="g">parameter</text><text x="44.088" y="1.67" class="g">when</text><text x="49.098" y="1.67" class="g">flexDirection</text><text x="63.126" y="1.67" class="g">is</text><text x="66.132" y="1.67" class="g">set</text><text x="70.14" y="1.67" class="g">to</text><text x="73.146" y="1.67" class="l">column(-reverse)</text><text x="90.18" y="1.67" class="g">to</text></symbol><symbol id="37"><text y="1.67" class="g">5.</text><text x="3.006" y="1.67" class="g">1.3.0</text><text x="15.03" y="1.67" class="g">set</text><text x="19.038" y="1.67" class="g">the</text><text x="23.046" y="1.67" class="g">separator</text><text x="33.066" y="1.67" class="g">width</text></symbol><symbol id="38"><text y="1.67" class="g">─────────</text><text x="18.036" y="1.67" class="g">*</text><text x="20.04" y="1.67" class="g">Expose</text><text x="27.054" y="1.67" class="g">a</text><text x="29.058" y="1.67" class="l">keyMap</text><text x="36.072" y="1.67" class="g">object</text><text x="43.086" y="1.67" class="g">to</text><text x="46.092" y="1.67" class="g">override</text><text x="55.11" y="1.67" class="g">default</text><text x="63.126" y="1.67" class="g">keyMap</text></symbol><symbol id="39"><text y="1.67" class="g">6.</text><text x="3.006" y="1.67" class="g">1.2.1</text></symbol><symbol id="40"><text y="1.67" class="g">────────────────────────────────</text></symbol><symbol id="41"><text y="1.67" class="g">2.</text><text x="3.006" y="1.67" class="g">2.1.0</text><text x="14.028" y="1.67" class="k">###</text><text x="18.036" y="1.67" class="k">Changed</text></symbol><symbol id="42"><text y="1.67" class="g">3.</text><path class="h" d="M3.006 0h5v2.171h-5z"/><text x="3.006" y="1.67" class="i">2.0.1</text><text x="18.036" y="1.67" class="g">*</text><text x="20.04" y="1.67" class="g">[Minor</text><text x="27.054" y="1.67" class="g">BC</text><text x="30.06" y="1.67" class="g">Break]</text><text x="37.074" y="1.67" class="g">Need</text><text x="42.084" y="1.67" class="g">ink</text><text x="46.092" y="1.67" class="g">^2.1.0</text><text x="53.106" y="1.67" class="g">(use</text><text x="58.116" y="1.67" class="g">automatic</text><text x="68.136" y="1.67" class="g">keypress</text><text x="77.154" y="1.67" class="g">event,</text><text x="84.168" y="1.67" class="g">added</text><text x="90.18" y="1.67" class="g">in</text></symbol><symbol id="43"><text y="1.67" class="g">1.</text><text x="3.006" y="1.67" class="g">2.1.1</text><text x="17.034" y="1.67" class="k">##</text><text x="20.04" y="1.67" class="k">2.0.1</text></symbol><symbol id="44"><text y="1.67" class="g">───────</text></symbol><symbol id="45"><text y="1.67" class="g">3.</text><path class="h" d="M3.006 0h5v2.171h-5z"/><text x="3.006" y="1.67" class="i">2.0.1</text><text x="17.034" y="1.67" class="g">Remove</text><text x="24.048" y="1.67" class="g">unmaintained</text><text x="37.074" y="1.67" class="g">keypress</text><text x="46.092" y="1.67" class="g">in</text><text x="49.098" y="1.67" class="g">favor</text><text x="55.11" y="1.67" class="g">of</text><text x="58.116" y="1.67" class="g">node</text><text x="63.126" y="1.67" class="g">&quot;readline&quot;</text></symbol><symbol id="46"><text y="1.67" class="g">3.</text><text x="3.006" y="1.67" class="g">2.0.1</text><text x="17.034" y="1.67" class="g">Remove</text><text x="24.048" y="1.67" class="g">unmaintained</text><text x="37.074" y="1.67" class="g">keypress</text><text x="46.092" y="1.67" class="g">in</text><text x="49.098" y="1.67" class="g">favor</text><text x="55.11" y="1.67" class="g">of</text><text x="58.116" y="1.67" class="g">node</text><text x="63.126" y="1.67" class="g">&quot;readline&quot;</text></symbol><symbol id="47"><text y="1.67" class="g">4.</text><path class="h" d="M3.006 0h5v2.171h-5z"/><text x="3.006" y="1.67" class="i">2.0.0</text></symbol><symbol id="48"><text y="1.67" class="g">1.</text><text x="3.006" y="1.67" class="g">2.1.1</text><text x="17.034" y="1.67" class="k">##</text><text x="20.04" y="1.67" class="k">2.0.0</text></symbol><symbol id="49"><text y="1.67" class="g">2.</text><text x="3.006" y="1.67" class="g">2.1.0</text><text x="21.042" y="1.67" class="g">*</text><text x="23.046" y="1.67" class="g">[Breaking]</text><text x="34.068" y="1.67" class="g">Use</text><text x="38.076" y="1.67" class="l">ink</text><text x="42.084" y="1.67" class="g">v2</text><text x="45.09" y="1.67" class="g">(and</text><text x="50.1" y="1.67" class="g">thus</text><text x="55.11" y="1.67" class="g">React</text><text x="61.122" y="1.67" class="g">+</text><text x="63.126" y="1.67" class="g">react-reconcilier)</text></symbol><symbol id="50"><text y="1.67" class="g">─────────</text><text x="21.042" y="1.67" class="g">*</text><text x="23.046" y="1.67" class="g">[Breaking]</text><text x="34.068" y="1.67" class="g">drop</text><text x="39.078" y="1.67" class="g">support</text><text x="47.094" y="1.67" class="g">for</text><text x="51.102" y="1.67" class="g">Node</text><text x="56.112" y="1.67" class="g">&lt;</text><text x="58.116" y="1.67" class="g">8.</text><text x="61.122" y="1.67" class="g">(ink</text><text x="66.132" y="1.67" class="g">2</text><text x="68.136" y="1.67" class="g">is</text><text x="71.142" y="1.67" class="g">dropping</text><text x="80.16" y="1.67" class="g">support</text></symbol><symbol id="51"><text y="1.67" class="g">3.</text><text x="3.006" y="1.67" class="g">2.0.1</text><text x="17.034" y="1.67" class="g">anyway)</text></symbol><symbol id="a"><path fill="transparent" d="M0 0h100v24H0z"/></symbol></defs><path class="a" d="M0 0h100v49.933H0z"/><g style="animation-duration:6.149649s;animation-iteration-count:infinite;animation-name:n;animation-timing-function:steps(1,end)"><svg width="6400"><svg><use xlink:href="#a"/></svg><svg x="100"><use xlink:href="#a"/></svg><svg x="200"><use xlink:href="#a"/><use xlink:href="#1"/></svg><svg x="300"><use xlink:href="#a"/><use xlink:href="#1"/></svg><svg x="400"><use xlink:href="#a"/><use xlink:href="#1"/><text y="3.841" class="g">$</text><text x="2.004" y="3.841" class="g">clear</text><text x="8.016" y="3.841" class="g">&amp;&amp;</text><text x="11.022" y="3.841" class="g">babel-node</text><text x="22.044" y="3.841" class="g">./src/bin.js</text><text x="35.07" y="3.841" class="g">sebastianbergmann/diff@3.0.0</text><text x="65.13" y="3.841" class="g">jdeniau/ink-tab@1.0.0</text></svg><svg x="500"><use xlink:href="#a"/></svg><svg x="600"><use xlink:href="#a"/></svg><svg x="700"><use xlink:href="#a"/><use xlink:href="#2"/><use xlink:href="#3" y="2.171"/><use xlink:href="#4" y="4.342"/><use xlink:href="#3" y="6.513"/></svg><svg x="800"><use xlink:href="#a"/><use xlink:href="#2"/><use xlink:href="#3" y="2.171"/><use xlink:href="#4" y="4.342"/><use xlink:href="#3" y="6.513"/></svg><svg x="900"><use xlink:href="#a"/><use xlink:href="#2"/><use xlink:href="#3" y="2.171"/><use xlink:href="#4" y="4.342"/><use xlink:href="#3" y="6.513"/></svg><svg x="1000"><use xlink:href="#a"/><use xlink:href="#5"/><use xlink:href="#3" y="2.171"/><use xlink:href="#4" y="4.342"/><use xlink:href="#3" y="6.513"/></svg><svg x="1100"><use xlink:href="#a"/><use xlink:href="#5"/><use xlink:href="#3" y="2.171"/><use xlink:href="#4" y="4.342"/><use xlink:href="#3" y="6.513"/></svg><svg x="1200"><use xlink:href="#a"/><use xlink:href="#6"/><use xlink:href="#3" y="2.171"/><use xlink:href="#4" y="4.342"/><use xlink:href="#3" y="6.513"/></svg><svg x="1300"><use xlink:href="#a"/><use xlink:href="#6"/><use xlink:href="#3" y="2.171"/><use xlink:href="#4" y="4.342"/><use xlink:href="#3" y="6.513"/></svg><svg x="1400"><use xlink:href="#a"/><use xlink:href="#7"/><use xlink:href="#3" y="2.171"/><use xlink:href="#4" y="4.342"/><use xlink:href="#3" y="6.513"/></svg><svg x="1500"><use xlink:href="#a"/><use xlink:href="#7"/><use xlink:href="#3" y="2.171"/><use xlink:href="#4" y="4.342"/><use xlink:href="#3" y="6.513"/></svg><svg x="1600"><use xlink:href="#a"/><use xlink:href="#8"/><use xlink:href="#3" y="2.171"/><use xlink:href="#4" y="4.342"/><use xlink:href="#3" y="6.513"/></svg><svg x="1700"><use xlink:href="#a"/><use xlink:href="#8"/><use xlink:href="#3" y="2.171"/><use xlink:href="#4" y="4.342"/><use xlink:href="#3" y="6.513"/></svg><svg x="1800"><use xlink:href="#a"/><use xlink:href="#9"/><use xlink:href="#3" y="2.171"/><use xlink:href="#4" y="4.342"/><use xlink:href="#3" y="6.513"/></svg><svg x="1900"><use xlink:href="#a"/><use xlink:href="#9"/><use xlink:href="#3" y="2.171"/><use xlink:href="#4" y="4.342"/><use xlink:href="#3" y="6.513"/></svg><svg x="2000"><use xlink:href="#a"/><use xlink:href="#10"/><use xlink:href="#3" y="2.171"/><use xlink:href="#4" y="4.342"/><use xlink:href="#3" y="6.513"/></svg><svg x="2100"><use xlink:href="#a"/><use xlink:href="#10"/><use xlink:href="#3" y="2.171"/><use xlink:href="#4" y="4.342"/><use xlink:href="#3" y="6.513"/></svg><svg x="2200"><use xlink:href="#a"/><use xlink:href="#11"/><use xlink:href="#3" y="2.171"/><use xlink:href="#4" y="4.342"/><use xlink:href="#3" y="6.513"/></svg><svg x="2300"><use xlink:href="#a"/><use xlink:href="#11"/><use xlink:href="#3" y="2.171"/><use xlink:href="#4" y="4.342"/><use xlink:href="#3" y="6.513"/></svg><svg x="2400"><use xlink:href="#a"/><use xlink:href="#3"/><use xlink:href="#12" y="2.171"/><use xlink:href="#3" y="4.342"/><use xlink:href="#13" y="6.513"/><use xlink:href="#14" y="8.684"/><use xlink:href="#15" y="10.855"/><use xlink:href="#16" y="15.197"/></svg><svg x="2500"><use xlink:href="#a"/><use xlink:href="#3"/><use xlink:href="#12" y="2.171"/><use xlink:href="#3" y="4.342"/><use xlink:href="#13" y="6.513"/><use xlink:href="#14" y="8.684"/><use xlink:href="#15" y="10.855"/><use xlink:href="#16" y="15.197"/><use xlink:href="#17" y="17.368"/><use xlink:href="#3" y="21.71"/><use xlink:href="#4" y="23.881"/><use xlink:href="#3" y="26.052"/></svg><svg x="2600"><use xlink:href="#a"/><use xlink:href="#3"/><use xlink:href="#12" y="2.171"/><use xlink:href="#3" y="4.342"/><use xlink:href="#13" y="6.513"/><use xlink:href="#14" y="8.684"/><use xlink:href="#15" y="10.855"/><use xlink:href="#16" y="15.197"/><use xlink:href="#17" y="17.368"/><use xlink:href="#3" y="21.71"/><use xlink:href="#4" y="23.881"/><use xlink:href="#3" y="26.052"/></svg><svg x="2700"><use xlink:href="#a"/><use xlink:href="#3"/><use xlink:href="#12" y="2.171"/><use xlink:href="#3" y="4.342"/><use xlink:href="#13" y="6.513"/><use xlink:href="#14" y="8.684"/><use xlink:href="#15" y="10.855"/><text x="20.04" y="16.867" class="g">*</text><text x="22.044" y="16.867" class="l">Chunk::setLines()</text><text x="40.08" y="16.867" class="g">now</text><text x="44.088" y="16.867" class="g">ensures</text></svg><svg x="2800"><use xlink:href="#a"/><use xlink:href="#3"/><use xlink:href="#12" y="2.171"/><use xlink:href="#3" y="4.342"/><use xlink:href="#13" y="6.513"/><use xlink:href="#14" y="8.684"/><use xlink:href="#15" y="10.855"/><use xlink:href="#16" y="15.197"/><use xlink:href="#17" y="17.368"/><use xlink:href="#3" y="21.71"/><use xlink:href="#18" y="23.881"/><use xlink:href="#3" y="26.052"/></svg><svg x="2900"><use xlink:href="#a"/><use xlink:href="#3"/><use xlink:href="#12" y="2.171"/><use xlink:href="#3" y="4.342"/><use xlink:href="#13" y="6.513"/><use xlink:href="#14" y="8.684"/><use xlink:href="#15" y="10.855"/><use xlink:href="#16" y="15.197"/><use xlink:href="#17" y="17.368"/><use xlink:href="#3" y="21.71"/><use xlink:href="#18" y="23.881"/><use xlink:href="#3" y="26.052"/></svg><svg x="3000"><use xlink:href="#a"/><use xlink:href="#2"/><use xlink:href="#3" y="2.171"/><use xlink:href="#18" y="4.342"/><use xlink:href="#3" y="6.513"/></svg><svg x="3100"><use xlink:href="#a"/><use xlink:href="#2"/><use xlink:href="#3" y="2.171"/><use xlink:href="#18" y="4.342"/><use xlink:href="#3" y="6.513"/></svg><svg x="3200"><use xlink:href="#a"/><use xlink:href="#3"/><use xlink:href="#19" y="2.171"/><use xlink:href="#3" y="4.342"/><use xlink:href="#20" y="6.513"/><use xlink:href="#14" y="8.684"/><use xlink:href="#21" y="10.855"/><use xlink:href="#14" y="13.026"/><use xlink:href="#22" y="15.197"/></svg><svg x="3300"><use xlink:href="#a"/><use xlink:href="#3"/><use xlink:href="#19" y="2.171"/><use xlink:href="#3" y="4.342"/><use xlink:href="#20" y="6.513"/><use xlink:href="#14" y="8.684"/><use xlink:href="#21" y="10.855"/><use xlink:href="#14" y="13.026"/><use xlink:href="#22" y="15.197"/><use xlink:href="#14" y="17.368"/><use xlink:href="#23" y="19.539"/><use xlink:href="#14" y="21.71"/><use xlink:href="#24" y="23.881"/><use xlink:href="#14" y="26.052"/><use xlink:href="#25" y="28.223"/><use xlink:href="#14" y="30.394"/><use xlink:href="#26" y="32.565"/><use xlink:href="#14" y="34.736"/><use xlink:href="#27" y="36.907"/><use xlink:href="#14" y="39.078"/><use xlink:href="#28" y="41.249"/><use xlink:href="#3" y="43.42"/><use xlink:href="#18" y="45.591"/><text y="49.432" class="g">──────────────────────────────────────────────</text></svg><svg x="3400"><use xlink:href="#a"/><use xlink:href="#3"/><use xlink:href="#19" y="2.171"/><use xlink:href="#3" y="4.342"/><use xlink:href="#20" y="6.513"/><use xlink:href="#14" y="8.684"/><use xlink:href="#21" y="10.855"/><use xlink:href="#14" y="13.026"/><use xlink:href="#22" y="15.197"/><use xlink:href="#14" y="17.368"/><use xlink:href="#23" y="19.539"/><use xlink:href="#14" y="21.71"/><use xlink:href="#24" y="23.881"/><use xlink:href="#14" y="26.052"/><use xlink:href="#25" y="28.223"/><use xlink:href="#14" y="30.394"/><use xlink:href="#26" y="32.565"/><use xlink:href="#14" y="34.736"/><use xlink:href="#27" y="36.907"/><use xlink:href="#14" y="39.078"/><use xlink:href="#28" y="41.249"/><use xlink:href="#3" y="43.42"/><use xlink:href="#18" y="45.591"/><use xlink:href="#3" y="47.762"/></svg><svg x="3500"><use xlink:href="#a"/><use xlink:href="#3"/><use xlink:href="#19" y="2.171"/><use xlink:href="#3" y="4.342"/><use xlink:href="#20" y="6.513"/><use xlink:href="#14" y="8.684"/><use xlink:href="#21" y="10.855"/><use xlink:href="#14" y="13.026"/><use xlink:href="#22" y="15.197"/><use xlink:href="#14" y="17.368"/><use xlink:href="#23" y="19.539"/><use xlink:href="#14" y="21.71"/><use xlink:href="#24" y="23.881"/><use xlink:href="#14" y="26.052"/><use xlink:href="#25" y="28.223"/><use xlink:href="#14" y="30.394"/><use xlink:href="#26" y="32.565"/><use xlink:href="#14" y="34.736"/><use xlink:href="#27" y="36.907"/><use xlink:href="#14" y="39.078"/><use xlink:href="#28" y="41.249"/><use xlink:href="#3" y="43.42"/><use xlink:href="#18" y="45.591"/><use xlink:href="#3" y="47.762"/></svg><svg x="3600"><use xlink:href="#a"/><use xlink:href="#3"/><use xlink:href="#19" y="2.171"/><use xlink:href="#3" y="4.342"/><use xlink:href="#29" y="6.513"/><use xlink:href="#14" y="8.684"/><use xlink:href="#30" y="10.855"/></svg><svg x="3700"><use xlink:href="#a"/><use xlink:href="#3"/><use xlink:href="#19" y="2.171"/><use xlink:href="#3" y="4.342"/><use xlink:href="#29" y="6.513"/><use xlink:href="#14" y="8.684"/><use xlink:href="#30" y="10.855"/><use xlink:href="#14" y="13.026"/><use xlink:href="#22" y="15.197"/><use xlink:href="#14" y="17.368"/><use xlink:href="#23" y="19.539"/><use xlink:href="#14" y="21.71"/><use xlink:href="#24" y="23.881"/><use xlink:href="#14" y="26.052"/><use xlink:href="#25" y="28.223"/><use xlink:href="#14" y="30.394"/><use xlink:href="#26" y="32.565"/><use xlink:href="#14" y="34.736"/><use xlink:href="#27" y="36.907"/><use xlink:href="#14" y="39.078"/><use xlink:href="#28" y="41.249"/><use xlink:href="#3" y="43.42"/><use xlink:href="#18" y="45.591"/></svg><svg x="3800"><use xlink:href="#a"/><use xlink:href="#3"/><use xlink:href="#19" y="2.171"/><use xlink:href="#3" y="4.342"/><use xlink:href="#29" y="6.513"/><use xlink:href="#14" y="8.684"/><use xlink:href="#30" y="10.855"/><use xlink:href="#14" y="13.026"/><use xlink:href="#22" y="15.197"/><use xlink:href="#14" y="17.368"/><use xlink:href="#23" y="19.539"/><use xlink:href="#14" y="21.71"/><use xlink:href="#24" y="23.881"/><use xlink:href="#14" y="26.052"/><use xlink:href="#25" y="28.223"/><use xlink:href="#14" y="30.394"/><use xlink:href="#26" y="32.565"/><use xlink:href="#14" y="34.736"/><use xlink:href="#27" y="36.907"/><use xlink:href="#14" y="39.078"/><use xlink:href="#28" y="41.249"/><use xlink:href="#3" y="43.42"/><use xlink:href="#18" y="45.591"/><use xlink:href="#3" y="47.762"/></svg><svg x="3900"><use xlink:href="#a"/><use xlink:href="#3"/><use xlink:href="#19" y="2.171"/><use xlink:href="#3" y="4.342"/><use xlink:href="#29" y="6.513"/><use xlink:href="#14" y="8.684"/><use xlink:href="#30" y="10.855"/><use xlink:href="#14" y="13.026"/><use xlink:href="#22" y="15.197"/><use xlink:href="#14" y="17.368"/><use xlink:href="#23" y="19.539"/><use xlink:href="#14" y="21.71"/><use xlink:href="#24" y="23.881"/><use xlink:href="#14" y="26.052"/><use xlink:href="#25" y="28.223"/><use xlink:href="#14" y="30.394"/><use xlink:href="#26" y="32.565"/><use xlink:href="#14" y="34.736"/><use xlink:href="#27" y="36.907"/><use xlink:href="#14" y="39.078"/><use xlink:href="#28" y="41.249"/><use xlink:href="#3" y="43.42"/><use xlink:href="#18" y="45.591"/><use xlink:href="#3" y="47.762"/></svg><svg x="4000"><use xlink:href="#a"/><use xlink:href="#3"/><use xlink:href="#19" y="2.171"/><use xlink:href="#3" y="4.342"/><use xlink:href="#31" y="6.513"/><use xlink:href="#14" y="8.684"/><use xlink:href="#32" y="10.855"/><text y="14.696" class="g">───</text></svg><svg x="4100"><use xlink:href="#a"/><use xlink:href="#3"/><use xlink:href="#19" y="2.171"/><use xlink:href="#3" y="4.342"/><use xlink:href="#31" y="6.513"/><use xlink:href="#14" y="8.684"/><use xlink:href="#32" y="10.855"/><use xlink:href="#14" y="13.026"/><use xlink:href="#33" y="15.197"/><use xlink:href="#34" y="17.368"/><use xlink:href="#35" y="19.539"/><use xlink:href="#36" y="21.71"/><use xlink:href="#37" y="23.881"/><use xlink:href="#38" y="26.052"/><use xlink:href="#39" y="28.223"/><use xlink:href="#14" y="30.394"/><use xlink:href="#26" y="32.565"/><use xlink:href="#14" y="34.736"/><use xlink:href="#27" y="36.907"/><use xlink:href="#14" y="39.078"/><use xlink:href="#28" y="41.249"/><use xlink:href="#40" y="43.42"/></svg><svg x="4200"><use xlink:href="#a"/><use xlink:href="#3"/><use xlink:href="#19" y="2.171"/><use xlink:href="#3" y="4.342"/><use xlink:href="#31" y="6.513"/><use xlink:href="#14" y="8.684"/><use xlink:href="#32" y="10.855"/><use xlink:href="#14" y="13.026"/><use xlink:href="#33" y="15.197"/><use xlink:href="#34" y="17.368"/><use xlink:href="#35" y="19.539"/><use xlink:href="#36" y="21.71"/><use xlink:href="#37" y="23.881"/><use xlink:href="#38" y="26.052"/><use xlink:href="#39" y="28.223"/><use xlink:href="#14" y="30.394"/><use xlink:href="#26" y="32.565"/><use xlink:href="#14" y="34.736"/><use xlink:href="#27" y="36.907"/><use xlink:href="#14" y="39.078"/><use xlink:href="#28" y="41.249"/><use xlink:href="#3" y="43.42"/><use xlink:href="#18" y="45.591"/><use xlink:href="#3" y="47.762"/></svg><svg x="4300"><use xlink:href="#a"/><use xlink:href="#3"/><use xlink:href="#19" y="2.171"/><use xlink:href="#3" y="4.342"/><use xlink:href="#31" y="6.513"/><use xlink:href="#14" y="8.684"/><use xlink:href="#32" y="10.855"/><use xlink:href="#14" y="13.026"/><use xlink:href="#33" y="15.197"/><use xlink:href="#34" y="17.368"/><use xlink:href="#35" y="19.539"/><use xlink:href="#36" y="21.71"/><use xlink:href="#37" y="23.881"/><use xlink:href="#38" y="26.052"/><use xlink:href="#39" y="28.223"/><use xlink:href="#14" y="30.394"/><use xlink:href="#26" y="32.565"/><use xlink:href="#14" y="34.736"/><use xlink:href="#27" y="36.907"/><use xlink:href="#14" y="39.078"/><use xlink:href="#28" y="41.249"/><use xlink:href="#3" y="43.42"/><use xlink:href="#18" y="45.591"/><use xlink:href="#3" y="47.762"/></svg><svg x="4400"><use xlink:href="#a"/><use xlink:href="#3"/><use xlink:href="#19" y="2.171"/><use xlink:href="#3" y="4.342"/><use xlink:href="#31" y="6.513"/><use xlink:href="#14" y="8.684"/><use xlink:href="#41" y="10.855"/><use xlink:href="#14" y="13.026"/></svg><svg x="4500"><use xlink:href="#a"/><use xlink:href="#3"/><use xlink:href="#19" y="2.171"/><use xlink:href="#3" y="4.342"/><use xlink:href="#31" y="6.513"/><use xlink:href="#14" y="8.684"/><use xlink:href="#41" y="10.855"/><use xlink:href="#14" y="13.026"/><use xlink:href="#42" y="15.197"/><use xlink:href="#34" y="17.368"/><use xlink:href="#35" y="19.539"/><use xlink:href="#36" y="21.71"/><use xlink:href="#37" y="23.881"/><use xlink:href="#38" y="26.052"/><use xlink:href="#39" y="28.223"/><use xlink:href="#14" y="30.394"/><use xlink:href="#26" y="32.565"/><use xlink:href="#14" y="34.736"/><use xlink:href="#27" y="36.907"/><use xlink:href="#14" y="39.078"/><use xlink:href="#28" y="41.249"/><use xlink:href="#40" y="43.42"/></svg><svg x="4600"><use xlink:href="#a"/><use xlink:href="#3"/><use xlink:href="#19" y="2.171"/><use xlink:href="#3" y="4.342"/><use xlink:href="#31" y="6.513"/><use xlink:href="#14" y="8.684"/><use xlink:href="#41" y="10.855"/><use xlink:href="#14" y="13.026"/><use xlink:href="#42" y="15.197"/><use xlink:href="#34" y="17.368"/><use xlink:href="#35" y="19.539"/><use xlink:href="#36" y="21.71"/><use xlink:href="#37" y="23.881"/><use xlink:href="#38" y="26.052"/><use xlink:href="#39" y="28.223"/><use xlink:href="#14" y="30.394"/><use xlink:href="#26" y="32.565"/><use xlink:href="#14" y="34.736"/><use xlink:href="#27" y="36.907"/><use xlink:href="#14" y="39.078"/><use xlink:href="#28" y="41.249"/><use xlink:href="#3" y="43.42"/><use xlink:href="#18" y="45.591"/><use xlink:href="#3" y="47.762"/></svg><svg x="4700"><use xlink:href="#a"/><use xlink:href="#3"/><use xlink:href="#19" y="2.171"/><use xlink:href="#3" y="4.342"/><use xlink:href="#31" y="6.513"/><use xlink:href="#14" y="8.684"/><use xlink:href="#41" y="10.855"/><use xlink:href="#14" y="13.026"/><use xlink:href="#42" y="15.197"/><use xlink:href="#34" y="17.368"/><use xlink:href="#35" y="19.539"/><use xlink:href="#36" y="21.71"/><use xlink:href="#37" y="23.881"/><use xlink:href="#38" y="26.052"/><use xlink:href="#39" y="28.223"/><use xlink:href="#14" y="30.394"/><use xlink:href="#26" y="32.565"/><use xlink:href="#14" y="34.736"/><use xlink:href="#27" y="36.907"/><use xlink:href="#14" y="39.078"/><use xlink:href="#28" y="41.249"/><use xlink:href="#3" y="43.42"/><use xlink:href="#18" y="45.591"/><use xlink:href="#3" y="47.762"/></svg><svg x="4800"><use xlink:href="#a"/><use xlink:href="#3"/><use xlink:href="#19" y="2.171"/><use xlink:href="#3" y="4.342"/><use xlink:href="#43" y="6.513"/><use xlink:href="#14" y="8.684"/><use xlink:href="#21" y="10.855"/><use xlink:href="#44" y="13.026"/></svg><svg x="4900"><use xlink:href="#a"/><use xlink:href="#3"/><use xlink:href="#19" y="2.171"/><use xlink:href="#3" y="4.342"/><use xlink:href="#43" y="6.513"/><use xlink:href="#14" y="8.684"/><use xlink:href="#21" y="10.855"/><use xlink:href="#14" y="13.026"/><use xlink:href="#45" y="15.197"/><use xlink:href="#14" y="17.368"/><use xlink:href="#23" y="19.539"/><use xlink:href="#14" y="21.71"/><use xlink:href="#24" y="23.881"/><use xlink:href="#14" y="26.052"/><use xlink:href="#25" y="28.223"/><use xlink:href="#14" y="30.394"/><use xlink:href="#26" y="32.565"/><use xlink:href="#14" y="34.736"/><use xlink:href="#27" y="36.907"/><use xlink:href="#14" y="39.078"/><use xlink:href="#28" y="41.249"/><use xlink:href="#3" y="43.42"/><use xlink:href="#18" y="45.591"/></svg><svg x="5000"><use xlink:href="#a"/><use xlink:href="#3"/><use xlink:href="#19" y="2.171"/><use xlink:href="#3" y="4.342"/><use xlink:href="#43" y="6.513"/><use xlink:href="#14" y="8.684"/><use xlink:href="#21" y="10.855"/><use xlink:href="#14" y="13.026"/><use xlink:href="#45" y="15.197"/><use xlink:href="#14" y="17.368"/><use xlink:href="#23" y="19.539"/><use xlink:href="#14" y="21.71"/><use xlink:href="#24" y="23.881"/><use xlink:href="#14" y="26.052"/><use xlink:href="#25" y="28.223"/><use xlink:href="#14" y="30.394"/><use xlink:href="#26" y="32.565"/><use xlink:href="#14" y="34.736"/><use xlink:href="#27" y="36.907"/><use xlink:href="#14" y="39.078"/><use xlink:href="#28" y="41.249"/><use xlink:href="#3" y="43.42"/><use xlink:href="#18" y="45.591"/><use xlink:href="#3" y="47.762"/></svg><svg x="5100"><use xlink:href="#a"/><use xlink:href="#3"/><use xlink:href="#19" y="2.171"/><use xlink:href="#3" y="4.342"/><use xlink:href="#43" y="6.513"/><use xlink:href="#14" y="8.684"/><use xlink:href="#21" y="10.855"/><use xlink:href="#14" y="13.026"/><use xlink:href="#45" y="15.197"/><use xlink:href="#14" y="17.368"/><use xlink:href="#23" y="19.539"/><use xlink:href="#14" y="21.71"/><use xlink:href="#24" y="23.881"/><use xlink:href="#14" y="26.052"/><use xlink:href="#25" y="28.223"/><use xlink:href="#14" y="30.394"/><use xlink:href="#26" y="32.565"/><use xlink:href="#14" y="34.736"/><use xlink:href="#27" y="36.907"/><use xlink:href="#14" y="39.078"/><use xlink:href="#28" y="41.249"/><use xlink:href="#3" y="43.42"/><use xlink:href="#18" y="45.591"/><use xlink:href="#3" y="47.762"/></svg><svg x="5200"><use xlink:href="#a"/><use xlink:href="#3"/><use xlink:href="#19" y="2.171"/><use xlink:href="#3" y="4.342"/><use xlink:href="#43" y="6.513"/><use xlink:href="#14" y="8.684"/><use xlink:href="#21" y="10.855"/><use xlink:href="#44" y="13.026"/></svg><svg x="5300"><use xlink:href="#a"/><use xlink:href="#3"/><use xlink:href="#19" y="2.171"/><use xlink:href="#3" y="4.342"/><use xlink:href="#43" y="6.513"/><use xlink:href="#14" y="8.684"/><use xlink:href="#21" y="10.855"/><use xlink:href="#14" y="13.026"/><use xlink:href="#46" y="15.197"/><use xlink:href="#14" y="17.368"/><use xlink:href="#47" y="19.539"/><use xlink:href="#14" y="21.71"/><use xlink:href="#24" y="23.881"/><use xlink:href="#14" y="26.052"/><use xlink:href="#25" y="28.223"/><use xlink:href="#14" y="30.394"/><use xlink:href="#26" y="32.565"/><use xlink:href="#14" y="34.736"/><use xlink:href="#27" y="36.907"/><use xlink:href="#14" y="39.078"/><use xlink:href="#28" y="41.249"/><use xlink:href="#3" y="43.42"/><use xlink:href="#18" y="45.591"/></svg><svg x="5400"><use xlink:href="#a"/><use xlink:href="#3"/><use xlink:href="#19" y="2.171"/><use xlink:href="#3" y="4.342"/><use xlink:href="#43" y="6.513"/><use xlink:href="#14" y="8.684"/><use xlink:href="#21" y="10.855"/><use xlink:href="#14" y="13.026"/><use xlink:href="#46" y="15.197"/><use xlink:href="#14" y="17.368"/><use xlink:href="#47" y="19.539"/><use xlink:href="#14" y="21.71"/><use xlink:href="#24" y="23.881"/><use xlink:href="#14" y="26.052"/><use xlink:href="#25" y="28.223"/><use xlink:href="#14" y="30.394"/><use xlink:href="#26" y="32.565"/><use xlink:href="#14" y="34.736"/><use xlink:href="#27" y="36.907"/><use xlink:href="#14" y="39.078"/><use xlink:href="#28" y="41.249"/><use xlink:href="#3" y="43.42"/><use xlink:href="#18" y="45.591"/><use xlink:href="#3" y="47.762"/></svg><svg x="5500"><use xlink:href="#a"/><use xlink:href="#3"/><use xlink:href="#19" y="2.171"/><use xlink:href="#3" y="4.342"/><use xlink:href="#43" y="6.513"/><use xlink:href="#14" y="8.684"/><use xlink:href="#21" y="10.855"/><use xlink:href="#14" y="13.026"/><use xlink:href="#46" y="15.197"/><use xlink:href="#14" y="17.368"/><use xlink:href="#47" y="19.539"/><use xlink:href="#14" y="21.71"/><use xlink:href="#24" y="23.881"/><use xlink:href="#14" y="26.052"/><use xlink:href="#25" y="28.223"/><use xlink:href="#14" y="30.394"/><use xlink:href="#26" y="32.565"/><use xlink:href="#14" y="34.736"/><use xlink:href="#27" y="36.907"/><use xlink:href="#14" y="39.078"/><use xlink:href="#28" y="41.249"/><use xlink:href="#3" y="43.42"/><use xlink:href="#18" y="45.591"/><use xlink:href="#3" y="47.762"/></svg><svg x="5600"><use xlink:href="#a"/><use xlink:href="#3"/><use xlink:href="#19" y="2.171"/><use xlink:href="#3" y="4.342"/><use xlink:href="#48" y="6.513"/><use xlink:href="#14" y="8.684"/><text y="12.525" class="g">2.</text><text x="3.006" y="12.525" class="g">2.1.0</text><text x="21.042" y="12.525" class="g">*</text><text x="23.046" y="12.525" class="g">[Breaking]</text><text x="34.068" y="12.525" class="g">Use</text><text x="38.076" y="12.525" class="l">ink</text><text x="42.084" y="12.525" class="g">v2</text><text x="45.09" y="12.525" class="g">(and</text><text x="50.1" y="12.525" class="g">thus</text><text x="55.11" y="12.525" class="g">React</text><text x="61.122" y="12.525" class="g">+</text><text x="63.126" y="12.525" class="g">rea</text></svg><svg x="5700"><use xlink:href="#a"/><use xlink:href="#3"/><use xlink:href="#19" y="2.171"/><use xlink:href="#3" y="4.342"/><use xlink:href="#48" y="6.513"/><use xlink:href="#14" y="8.684"/><use xlink:href="#49" y="10.855"/><use xlink:href="#50" y="13.026"/><use xlink:href="#51" y="15.197"/><use xlink:href="#14" y="17.368"/><use xlink:href="#47" y="19.539"/><use xlink:href="#14" y="21.71"/><use xlink:href="#24" y="23.881"/><use xlink:href="#14" y="26.052"/><use xlink:href="#25" y="28.223"/><use xlink:href="#14" y="30.394"/><use xlink:href="#26" y="32.565"/><use xlink:href="#14" y="34.736"/><use xlink:href="#27" y="36.907"/><use xlink:href="#14" y="39.078"/><use xlink:href="#28" y="41.249"/><use xlink:href="#3" y="43.42"/><text y="47.261" class="g">1.</text><text x="3.006" y="47.261" class="g">sebastianbergmann/diff@3.0.0</text><text x="32.064" y="47.261" class="g">|</text></svg><svg x="5800"><use xlink:href="#a"/><use xlink:href="#3"/><use xlink:href="#19" y="2.171"/><use xlink:href="#3" y="4.342"/><use xlink:href="#48" y="6.513"/><use xlink:href="#14" y="8.684"/><use xlink:href="#49" y="10.855"/><use xlink:href="#50" y="13.026"/><use xlink:href="#51" y="15.197"/><use xlink:href="#14" y="17.368"/><use xlink:href="#47" y="19.539"/><use xlink:href="#14" y="21.71"/><use xlink:href="#24" y="23.881"/><use xlink:href="#14" y="26.052"/><use xlink:href="#25" y="28.223"/><use xlink:href="#14" y="30.394"/><use xlink:href="#26" y="32.565"/><use xlink:href="#14" y="34.736"/><use xlink:href="#27" y="36.907"/><use xlink:href="#14" y="39.078"/><use xlink:href="#28" y="41.249"/><use xlink:href="#3" y="43.42"/><use xlink:href="#18" y="45.591"/><use xlink:href="#3" y="47.762"/></svg><svg x="5900"><use xlink:href="#a"/><use xlink:href="#3"/><use xlink:href="#19" y="2.171"/><use xlink:href="#3" y="4.342"/><use xlink:href="#48" y="6.513"/><use xlink:href="#14" y="8.684"/><use xlink:href="#49" y="10.855"/><use xlink:href="#50" y="13.026"/><use xlink:href="#51" y="15.197"/><use xlink:href="#14" y="17.368"/><use xlink:href="#47" y="19.539"/><use xlink:href="#14" y="21.71"/><use xlink:href="#24" y="23.881"/><use xlink:href="#14" y="26.052"/><use xlink:href="#25" y="28.223"/><use xlink:href="#14" y="30.394"/><use xlink:href="#26" y="32.565"/><use xlink:href="#14" y="34.736"/><use xlink:href="#27" y="36.907"/><use xlink:href="#14" y="39.078"/><use xlink:href="#28" y="41.249"/><use xlink:href="#3" y="43.42"/><use xlink:href="#18" y="45.591"/><use xlink:href="#3" y="47.762"/></svg><svg x="6000"><use xlink:href="#a"/><use xlink:href="#3"/><use xlink:href="#19" y="2.171"/><use xlink:href="#3" y="4.342"/><use xlink:href="#48" y="6.513"/><use xlink:href="#14" y="8.684"/><use xlink:href="#49" y="10.855"/><use xlink:href="#50" y="13.026"/><use xlink:href="#51" y="15.197"/><use xlink:href="#14" y="17.368"/><use xlink:href="#47" y="19.539"/><use xlink:href="#14" y="21.71"/><use xlink:href="#24" y="23.881"/><use xlink:href="#14" y="26.052"/><use xlink:href="#25" y="28.223"/><use xlink:href="#14" y="30.394"/><use xlink:href="#26" y="32.565"/><use xlink:href="#14" y="34.736"/><use xlink:href="#27" y="36.907"/><use xlink:href="#14" y="39.078"/><use xlink:href="#28" y="41.249"/><use xlink:href="#3" y="43.42"/><use xlink:href="#18" y="45.591"/><use xlink:href="#3" y="47.762"/></svg><svg x="6100"><use xlink:href="#a"/><use xlink:href="#3"/><use xlink:href="#19" y="2.171"/><use xlink:href="#3" y="4.342"/><use xlink:href="#48" y="6.513"/><use xlink:href="#14" y="8.684"/><use xlink:href="#49" y="10.855"/><use xlink:href="#50" y="13.026"/><use xlink:href="#51" y="15.197"/><use xlink:href="#14" y="17.368"/><use xlink:href="#47" y="19.539"/><use xlink:href="#14" y="21.71"/><use xlink:href="#24" y="23.881"/><use xlink:href="#14" y="26.052"/><use xlink:href="#25" y="28.223"/><use xlink:href="#14" y="30.394"/><use xlink:href="#26" y="32.565"/><use xlink:href="#14" y="34.736"/><use xlink:href="#27" y="36.907"/><use xlink:href="#14" y="39.078"/><use xlink:href="#28" y="41.249"/><use xlink:href="#3" y="43.42"/><use xlink:href="#18" y="45.591"/><use xlink:href="#3" y="47.762"/></svg><svg x="6200"><use xlink:href="#a"/><use xlink:href="#3"/><use xlink:href="#19" y="2.171"/><use xlink:href="#3" y="4.342"/><use xlink:href="#48" y="6.513"/><use xlink:href="#14" y="8.684"/><use xlink:href="#49" y="10.855"/><use xlink:href="#50" y="13.026"/><use xlink:href="#51" y="15.197"/><use xlink:href="#14" y="17.368"/><use xlink:href="#47" y="19.539"/><use xlink:href="#14" y="21.71"/><use xlink:href="#24" y="23.881"/><use xlink:href="#14" y="26.052"/><use xlink:href="#25" y="28.223"/><use xlink:href="#14" y="30.394"/><use xlink:href="#26" y="32.565"/><use xlink:href="#14" y="34.736"/><use xlink:href="#27" y="36.907"/><use xlink:href="#14" y="39.078"/><use xlink:href="#28" y="41.249"/><use xlink:href="#3" y="43.42"/><use xlink:href="#18" y="45.591"/><use xlink:href="#3" y="47.762"/></svg><svg x="6300"><use xlink:href="#a"/><use xlink:href="#19"/><use xlink:href="#3" y="2.171"/><use xlink:href="#48" y="4.342"/><use xlink:href="#14" y="6.513"/><use xlink:href="#49" y="8.684"/><use xlink:href="#50" y="10.855"/><use xlink:href="#51" y="13.026"/><use xlink:href="#14" y="15.197"/><use xlink:href="#47" y="17.368"/><use xlink:href="#14" y="19.539"/><use xlink:href="#24" y="21.71"/><use xlink:href="#14" y="23.881"/><use xlink:href="#25" y="26.052"/><use xlink:href="#14" y="28.223"/><use xlink:href="#26" y="30.394"/><use xlink:href="#14" y="32.565"/><use xlink:href="#27" y="34.736"/><use xlink:href="#14" y="36.907"/><use xlink:href="#28" y="39.078"/><use xlink:href="#3" y="41.249"/><use xlink:href="#18" y="43.42"/><use xlink:href="#3" y="45.591"/><text y="49.432" class="g">Done</text><text x="5.01" y="49.432" class="g">in</text><text x="8.016" y="49.432" class="g">5.98s.</text></svg></svg></g></g></svg></svg>